<svg width="14" height="12" viewBox="0 0 14 12" fill="none" xmlns="http://www.w3.org/2000/svg">
<g clip-path="url(#clip0)">
<path d="M10.0351 12C9.73299 12 9.48818 11.7902 9.48818 11.5312V4.12482H7.13683C6.70542 4.12482 6.3194 3.90372 6.15331 3.56149C5.98657 3.2179 6.0764 2.82559 6.3821 2.56192L8.87294 0.414276C9.1828 0.147125 9.59552 0 10.0351 0C10.4746 0 10.8873 0.147125 11.1972 0.414276L13.688 2.56192C13.9938 2.8255 14.0836 3.2179 13.9169 3.56149C13.7508 3.90372 13.3647 4.12482 12.9333 4.12482H12.332C12.03 4.12482 11.7852 3.91498 11.7852 3.65607C11.7852 3.39716 12.03 3.18732 12.332 3.18732H12.871L10.4215 1.07529C10.3184 0.986481 10.1813 0.9375 10.0351 0.9375C9.88893 0.9375 9.75168 0.986481 9.64861 1.07529L7.1991 3.18732H9.48818C10.0913 3.18732 10.5819 3.60791 10.5819 4.12482V11.5312C10.5819 11.7901 10.3371 12 10.0351 12Z" fill="white"/>
<path d="M3.96409 12C3.52456 12 3.11184 11.8529 2.80198 11.5857L0.311139 9.43808C0.00533739 9.17441 -0.0844911 8.7821 0.0823485 8.43851C0.248334 8.09628 0.634457 7.87509 1.06587 7.87509H3.41722V0.46875C3.41722 0.209839 3.66203 0 3.96409 0C4.26616 0 4.51097 0.209839 4.51097 0.46875V7.87518C4.51097 8.39209 4.02028 8.81268 3.41722 8.81268H1.12814L3.57765 10.9247C3.68072 11.0135 3.81797 11.0625 3.96409 11.0625C4.11021 11.0625 4.24746 11.0135 4.35054 10.9247L6.80005 8.81268H6.26107C5.95901 8.81268 5.7142 8.60284 5.7142 8.34393C5.7142 8.08502 5.95901 7.87518 6.26107 7.87518H6.86232C7.29373 7.87518 7.67974 8.09628 7.84584 8.43851C8.01257 8.7821 7.92285 9.1745 7.61705 9.43808L5.1262 11.5857C4.81634 11.8529 4.40362 12 3.96409 12Z" fill="white"/>
</g>
<defs>
<clipPath id="clip0">
<rect width="14" height="12" fill="white"/>
</clipPath>
</defs>
</svg>