<svg width="18" height="16" viewBox="0 0 18 16" fill="none" xmlns="http://www.w3.org/2000/svg">
<g clip-path="url(#clip0)">
<path d="M15.4515 7.20504L14.6922 6.80795C14.6696 6.72659 14.645 6.64573 14.618 6.56604L15.1582 5.83927C15.2155 5.76228 15.2239 5.66442 15.1805 5.58056C14.9917 5.218 14.7616 4.87357 14.4938 4.55266C14.4335 4.4817 14.338 4.44144 14.2381 4.44487L13.2315 4.48887C13.1682 4.43121 13.1036 4.37495 13.0376 4.32012L13.088 3.45327C13.0933 3.36178 13.0454 3.27425 12.9611 3.22152C12.5903 2.98881 12.1944 2.78957 11.7791 2.62665C11.6879 2.59079 11.5826 2.59765 11.4982 2.64501L10.6545 3.1175C10.5631 3.0942 10.47 3.07257 10.3759 3.05294L9.91635 2.27645C9.86449 2.18882 9.76231 2.13393 9.65095 2.1339H8.34911C8.23775 2.13393 8.13553 2.18882 8.08371 2.27645L7.62438 3.05294C7.53064 3.07247 7.43769 3.094 7.34552 3.1175L6.50215 2.64501C6.41789 2.59772 6.31268 2.59079 6.22153 2.62652C5.80603 2.7894 5.40984 2.98875 5.03893 3.22162C4.95486 3.27439 4.90709 3.36174 4.91238 3.4531L4.96277 4.32009C4.89655 4.37491 4.83191 4.43104 4.76884 4.48857L3.76199 4.44457C3.66217 4.44217 3.56704 4.48227 3.50596 4.5525C3.23872 4.8736 3.00887 5.218 2.81989 5.5804C2.77647 5.66419 2.78479 5.76195 2.84186 5.83897L3.382 6.56604C3.35504 6.64573 3.33044 6.72655 3.30787 6.80795L2.54857 7.20491C2.45689 7.25277 2.4006 7.3402 2.4006 7.43469V8.56518C2.4006 8.65967 2.45689 8.74709 2.54853 8.79499L3.30783 9.19195C3.3304 9.27331 3.355 9.35417 3.38196 9.43399L2.84179 10.1606C2.78449 10.2376 2.77606 10.3355 2.81951 10.4193C3.00835 10.7819 3.23842 11.1264 3.50619 11.4474C3.56671 11.5181 3.66206 11.5583 3.76191 11.5552L4.76847 11.5112C4.83176 11.5689 4.89637 11.6251 4.9624 11.6799L4.91204 12.5466C4.90671 12.6381 4.9546 12.7256 5.03889 12.7783C5.40969 13.0111 5.80565 13.2104 6.22089 13.3733C6.31216 13.4091 6.41741 13.4022 6.50181 13.355L7.34548 12.8825C7.43686 12.9058 7.53004 12.9274 7.62408 12.9471L8.08371 13.7235C8.13553 13.8112 8.23775 13.8661 8.34911 13.8661H9.65095C9.76231 13.8661 9.86453 13.8112 9.91635 13.7236L10.3757 12.9471C10.4694 12.9276 10.5624 12.906 10.6546 12.8825L11.4979 13.355C11.5822 13.4022 11.6874 13.4091 11.7786 13.3735C12.1941 13.2106 12.5903 13.0113 12.9612 12.7784C13.0452 12.7256 13.093 12.6383 13.0877 12.5469L13.0373 11.6799C13.1035 11.6251 13.1682 11.5689 13.2313 11.5113L14.2381 11.5553C14.3382 11.5592 14.4339 11.5188 14.4938 11.4475C14.7613 11.1265 14.9913 10.782 15.1802 10.4195C15.2236 10.3357 15.2153 10.238 15.1582 10.1609L14.6181 9.43403C14.645 9.35434 14.6696 9.27351 14.6922 9.19212L15.4515 8.79516C15.5432 8.74729 15.5995 8.65987 15.5994 8.56538V7.43489C15.5994 7.34036 15.5431 7.2529 15.4515 7.20504ZM14.9994 8.41276L14.277 8.79046C14.2051 8.82799 14.1541 8.89045 14.1361 8.96284C14.1001 9.10839 14.0556 9.25291 14.0043 9.39236C13.9758 9.46966 13.9885 9.55425 14.0389 9.62218L14.5638 10.3287C14.4302 10.5676 14.2767 10.7971 14.1045 11.0155L13.1234 10.9727C13.0353 10.9704 12.9503 11.0012 12.8891 11.0576C12.7757 11.1658 12.6556 11.2703 12.5314 11.3683C12.4632 11.4221 12.4262 11.5005 12.4309 11.5814L12.4798 12.4253C12.225 12.5765 11.9578 12.7108 11.6807 12.8271L10.859 12.3667C10.7847 12.3249 10.6933 12.3144 10.6094 12.3379C10.4483 12.3827 10.2813 12.4214 10.1135 12.4527C10.0259 12.469 9.95114 12.5192 9.9096 12.5896L9.46988 13.3329H8.53011L8.09039 12.5896C8.0488 12.5193 7.97418 12.4691 7.88678 12.4527C7.71745 12.421 7.55047 12.3824 7.39055 12.3379C7.30667 12.3143 7.21533 12.3249 7.14098 12.3667L6.31898 12.827C6.04184 12.7106 5.77476 12.5763 5.51982 12.425L5.56905 11.5813C5.5737 11.5003 5.53662 11.4217 5.46826 11.3679C5.34464 11.2706 5.22423 11.166 5.11058 11.0574C5.04984 11.0005 4.96446 10.9696 4.87623 10.9725L3.89547 11.0154C3.72307 10.7971 3.56944 10.5676 3.43584 10.3287L3.96079 9.62228C4.01134 9.55442 4.0242 9.46969 3.99566 9.39236C3.94441 9.25291 3.89986 9.10829 3.86383 8.96271C3.84587 8.89031 3.79483 8.82785 3.72292 8.79032L3.00051 8.41263V7.58731L3.72292 7.20961C3.7948 7.17208 3.84587 7.10962 3.86383 7.03722C3.89986 6.89167 3.94437 6.74715 3.99566 6.6077C4.02416 6.53041 4.01141 6.44581 3.96109 6.37789L3.43614 5.67119C3.56978 5.43241 3.72333 5.20283 3.89547 4.98442L4.87653 5.02738C4.96495 5.03132 5.05074 5.00022 5.11088 4.94249C5.22423 4.8343 5.34437 4.72975 5.46856 4.63172C5.53677 4.57799 5.57374 4.4996 5.56905 4.41871L5.52012 3.57479C5.77498 3.42354 6.04211 3.28925 6.31924 3.173L7.14094 3.63339C7.21537 3.67505 7.3066 3.68555 7.39051 3.66215C7.55164 3.61735 7.71861 3.57869 7.88648 3.54733C7.97403 3.53109 8.0488 3.4809 8.09035 3.41051L8.53007 2.66721H9.46984L9.90956 3.41051C9.95114 3.48077 10.0258 3.53093 10.1132 3.54733C10.2825 3.57909 10.4495 3.61762 10.6094 3.66215C10.6933 3.68538 10.7845 3.67488 10.859 3.63339L11.681 3.17303C11.9581 3.28938 12.2252 3.42371 12.4802 3.57496L12.4309 4.41874C12.4263 4.4998 12.4634 4.57833 12.5317 4.63212C12.6553 4.72951 12.7757 4.83407 12.8894 4.94263C12.95 4.99979 13.0355 5.03075 13.1238 5.02752L14.1045 4.98469C14.2769 5.20297 14.4305 5.43251 14.5641 5.67136L14.0392 6.37779C13.9886 6.44565 13.9758 6.53037 14.0043 6.6077C14.0556 6.74715 14.1001 6.89164 14.1362 7.03722C14.1541 7.10962 14.2051 7.17208 14.2771 7.20961L14.9995 7.58731V8.41276H14.9994Z" fill="#2E6171" fill-opacity="0.99"/>
<path d="M15.4515 7.20504L14.6922 6.80795C14.6696 6.72659 14.645 6.64573 14.618 6.56604L15.1582 5.83927C15.2155 5.76228 15.2239 5.66442 15.1805 5.58056C14.9917 5.218 14.7616 4.87357 14.4938 4.55266C14.4335 4.4817 14.338 4.44144 14.2381 4.44487L13.2315 4.48887C13.1682 4.43121 13.1036 4.37495 13.0376 4.32012L13.088 3.45327C13.0933 3.36178 13.0454 3.27425 12.9611 3.22152C12.5903 2.98881 12.1944 2.78957 11.7791 2.62665C11.6879 2.59079 11.5826 2.59765 11.4982 2.64501L10.6545 3.1175C10.5631 3.0942 10.47 3.07257 10.3759 3.05294L9.91635 2.27645C9.86449 2.18882 9.76231 2.13393 9.65095 2.1339H8.34911C8.23775 2.13393 8.13553 2.18882 8.08371 2.27645L7.62438 3.05294C7.53064 3.07247 7.43769 3.094 7.34552 3.1175L6.50215 2.64501C6.41789 2.59772 6.31268 2.59079 6.22153 2.62652C5.80603 2.7894 5.40984 2.98875 5.03893 3.22162C4.95486 3.27439 4.90709 3.36174 4.91238 3.4531L4.96277 4.32009C4.89655 4.37491 4.83191 4.43104 4.76884 4.48857L3.76199 4.44457C3.66217 4.44217 3.56704 4.48227 3.50596 4.5525C3.23872 4.8736 3.00887 5.218 2.81989 5.5804C2.77647 5.66419 2.78479 5.76195 2.84186 5.83897L3.382 6.56604C3.35504 6.64573 3.33044 6.72655 3.30787 6.80795L2.54857 7.20491C2.45689 7.25277 2.4006 7.3402 2.4006 7.43469V8.56518C2.4006 8.65967 2.45689 8.74709 2.54853 8.79499L3.30783 9.19195C3.3304 9.27331 3.355 9.35417 3.38196 9.43399L2.84179 10.1606C2.78449 10.2376 2.77606 10.3355 2.81951 10.4193C3.00835 10.7819 3.23842 11.1264 3.50619 11.4474C3.56671 11.5181 3.66206 11.5583 3.76191 11.5552L4.76847 11.5112C4.83176 11.5689 4.89637 11.6251 4.9624 11.6799L4.91204 12.5466C4.90671 12.6381 4.9546 12.7256 5.03889 12.7783C5.40969 13.0111 5.80565 13.2104 6.22089 13.3733C6.31216 13.4091 6.41741 13.4022 6.50181 13.355L7.34548 12.8825C7.43686 12.9058 7.53004 12.9274 7.62408 12.9471L8.08371 13.7235C8.13553 13.8112 8.23775 13.8661 8.34911 13.8661H9.65095C9.76231 13.8661 9.86453 13.8112 9.91635 13.7236L10.3757 12.9471C10.4694 12.9276 10.5624 12.906 10.6546 12.8825L11.4979 13.355C11.5822 13.4022 11.6874 13.4091 11.7786 13.3735C12.1941 13.2106 12.5903 13.0113 12.9612 12.7784C13.0452 12.7256 13.093 12.6383 13.0877 12.5469L13.0373 11.6799C13.1035 11.6251 13.1682 11.5689 13.2313 11.5113L14.2381 11.5553C14.3382 11.5592 14.4339 11.5188 14.4938 11.4475C14.7613 11.1265 14.9913 10.782 15.1802 10.4195C15.2236 10.3357 15.2153 10.238 15.1582 10.1609L14.6181 9.43403C14.645 9.35434 14.6696 9.27351 14.6922 9.19212L15.4515 8.79516C15.5432 8.74729 15.5995 8.65987 15.5994 8.56538V7.43489C15.5994 7.34036 15.5431 7.2529 15.4515 7.20504ZM14.9994 8.41276L14.277 8.79046C14.2051 8.82799 14.1541 8.89045 14.1361 8.96284C14.1001 9.10839 14.0556 9.25291 14.0043 9.39236C13.9758 9.46966 13.9885 9.55425 14.0389 9.62218L14.5638 10.3287C14.4302 10.5676 14.2767 10.7971 14.1045 11.0155L13.1234 10.9727C13.0353 10.9704 12.9503 11.0012 12.8891 11.0576C12.7757 11.1658 12.6556 11.2703 12.5314 11.3683C12.4632 11.4221 12.4262 11.5005 12.4309 11.5814L12.4798 12.4253C12.225 12.5765 11.9578 12.7108 11.6807 12.8271L10.859 12.3667C10.7847 12.3249 10.6933 12.3144 10.6094 12.3379C10.4483 12.3827 10.2813 12.4214 10.1135 12.4527C10.0259 12.469 9.95114 12.5192 9.9096 12.5896L9.46988 13.3329H8.53011L8.09039 12.5896C8.0488 12.5193 7.97418 12.4691 7.88678 12.4527C7.71745 12.421 7.55047 12.3824 7.39055 12.3379C7.30667 12.3143 7.21533 12.3249 7.14098 12.3667L6.31898 12.827C6.04184 12.7106 5.77476 12.5763 5.51982 12.425L5.56905 11.5813C5.5737 11.5003 5.53662 11.4217 5.46826 11.3679C5.34464 11.2706 5.22423 11.166 5.11058 11.0574C5.04984 11.0005 4.96446 10.9696 4.87623 10.9725L3.89547 11.0154C3.72307 10.7971 3.56944 10.5676 3.43584 10.3287L3.96079 9.62228C4.01134 9.55442 4.0242 9.46969 3.99566 9.39236C3.94441 9.25291 3.89986 9.10829 3.86383 8.96271C3.84587 8.89031 3.79483 8.82785 3.72292 8.79032L3.00051 8.41263V7.58731L3.72292 7.20961C3.7948 7.17208 3.84587 7.10962 3.86383 7.03722C3.89986 6.89167 3.94437 6.74715 3.99566 6.6077C4.02416 6.53041 4.01141 6.44581 3.96109 6.37789L3.43614 5.67119C3.56978 5.43241 3.72333 5.20283 3.89547 4.98442L4.87653 5.02738C4.96495 5.03132 5.05074 5.00022 5.11088 4.94249C5.22423 4.8343 5.34437 4.72975 5.46856 4.63172C5.53677 4.57799 5.57374 4.4996 5.56905 4.41871L5.52012 3.57479C5.77498 3.42354 6.04211 3.28925 6.31924 3.173L7.14094 3.63339C7.21537 3.67505 7.3066 3.68555 7.39051 3.66215C7.55164 3.61735 7.71861 3.57869 7.88648 3.54733C7.97403 3.53109 8.0488 3.4809 8.09035 3.41051L8.53007 2.66721H9.46984L9.90956 3.41051C9.95114 3.48077 10.0258 3.53093 10.1132 3.54733C10.2825 3.57909 10.4495 3.61762 10.6094 3.66215C10.6933 3.68538 10.7845 3.67488 10.859 3.63339L11.681 3.17303C11.9581 3.28938 12.2252 3.42371 12.4802 3.57496L12.4309 4.41874C12.4263 4.4998 12.4634 4.57833 12.5317 4.63212C12.6553 4.72951 12.7757 4.83407 12.8894 4.94263C12.95 4.99979 13.0355 5.03075 13.1238 5.02752L14.1045 4.98469C14.2769 5.20297 14.4305 5.43251 14.5641 5.67136L14.0392 6.37779C13.9886 6.44565 13.9758 6.53037 14.0043 6.6077C14.0556 6.74715 14.1001 6.89164 14.1362 7.03722C14.1541 7.10962 14.2051 7.17208 14.2771 7.20961L14.9995 7.58731V8.41276H14.9994Z" fill="url(#paint0_linear)"/>
<path d="M8.99999 4.00042C6.51496 4.00042 4.50043 5.79111 4.50043 8.00003C4.50043 10.209 6.51496 11.9996 8.99999 11.9996C11.485 11.9996 13.4996 10.209 13.4996 8.00003C13.4968 5.79211 11.4839 4.00285 8.99999 4.00042ZM8.99999 11.4664C6.84628 11.4664 5.10037 9.91445 5.10037 8.00003C5.10037 6.08562 6.84628 4.5337 8.99999 4.5337C11.1537 4.5337 12.8996 6.08562 12.8996 8.00003C12.8972 9.91352 11.1527 11.4642 8.99999 11.4664Z" fill="#2E6171" fill-opacity="0.99"/>
<path d="M8.99999 4.00042C6.51496 4.00042 4.50043 5.79111 4.50043 8.00003C4.50043 10.209 6.51496 11.9996 8.99999 11.9996C11.485 11.9996 13.4996 10.209 13.4996 8.00003C13.4968 5.79211 11.4839 4.00285 8.99999 4.00042ZM8.99999 11.4664C6.84628 11.4664 5.10037 9.91445 5.10037 8.00003C5.10037 6.08562 6.84628 4.5337 8.99999 4.5337C11.1537 4.5337 12.8996 6.08562 12.8996 8.00003C12.8972 9.91352 11.1527 11.4642 8.99999 11.4664Z" fill="url(#paint1_linear)"/>
<path d="M15.2994 1.06736V2.66721H13.4996V3.20049H15.5994C15.765 3.20053 15.8993 3.0812 15.8993 2.93398C15.8993 2.93395 15.8993 2.93388 15.8993 2.93385V1.06736H15.2994Z" fill="#2E6171" fill-opacity="0.99"/>
<path d="M15.2994 1.06736V2.66721H13.4996V3.20049H15.5994C15.765 3.20053 15.8993 3.0812 15.8993 2.93398C15.8993 2.93395 15.8993 2.93388 15.8993 2.93385V1.06736H15.2994Z" fill="url(#paint2_linear)"/>
<path d="M2.40065 12.7996C2.23503 12.7995 2.10071 12.9189 2.10068 13.0661C2.10068 13.0661 2.10068 13.0662 2.10068 13.0662V14.9327H2.70062V13.3329H4.50045V12.7996H2.40065Z" fill="#2E6171" fill-opacity="0.99"/>
<path d="M2.40065 12.7996C2.23503 12.7995 2.10071 12.9189 2.10068 13.0661C2.10068 13.0661 2.10068 13.0662 2.10068 13.0662V14.9327H2.70062V13.3329H4.50045V12.7996H2.40065Z" fill="url(#paint3_linear)"/>
<path d="M1.55298 3.51059C0.542154 4.8354 0.00168062 6.39928 0.00141814 8.00006C-0.00180655 9.60207 0.539042 11.1676 1.55313 12.492L2.04936 12.192C-0.554579 8.77899 0.4471 4.13583 4.28673 1.82122C7.13346 0.105119 10.8695 0.105086 13.7163 1.82112L14.0538 1.38003C9.93988 -1.1001 4.34309 -0.14619 1.55298 3.51059Z" fill="#2E6171" fill-opacity="0.99"/>
<path d="M1.55298 3.51059C0.542154 4.8354 0.00168062 6.39928 0.00141814 8.00006C-0.00180655 9.60207 0.539042 11.1676 1.55313 12.492L2.04936 12.192C-0.554579 8.77899 0.4471 4.13583 4.28673 1.82122C7.13346 0.105119 10.8695 0.105086 13.7163 1.82112L14.0538 1.38003C9.93988 -1.1001 4.34309 -0.14619 1.55298 3.51059Z" fill="url(#paint4_linear)"/>
<path d="M16.5066 3.58652L16.0063 3.88103C18.5649 7.32106 17.5018 11.9535 13.6318 14.2278C10.7926 15.8963 7.10127 15.877 4.28428 14.179L3.94681 14.6201C8.06076 17.1002 13.6576 16.1462 16.4477 12.4893C18.4947 9.80643 18.518 6.29066 16.5066 3.58652Z" fill="#2E6171" fill-opacity="0.99"/>
<path d="M16.5066 3.58652L16.0063 3.88103C18.5649 7.32106 17.5018 11.9535 13.6318 14.2278C10.7926 15.8963 7.10127 15.877 4.28428 14.179L3.94681 14.6201C8.06076 17.1002 13.6576 16.1462 16.4477 12.4893C18.4947 9.80643 18.518 6.29066 16.5066 3.58652Z" fill="url(#paint5_linear)"/>
</g>
<defs>
<linearGradient id="paint0_linear" x1="9.00001" y1="2.1339" x2="9.00001" y2="13.8661" gradientUnits="userSpaceOnUse">
<stop stop-color="#E8B022" stop-opacity="0.9"/>
<stop offset="1" stop-color="white" stop-opacity="0"/>
</linearGradient>
<linearGradient id="paint1_linear" x1="8.99999" y1="4.00042" x2="8.99999" y2="11.9996" gradientUnits="userSpaceOnUse">
<stop stop-color="#E8B022" stop-opacity="0.9"/>
<stop offset="1" stop-color="white" stop-opacity="0"/>
</linearGradient>
<linearGradient id="paint2_linear" x1="14.6995" y1="1.06736" x2="14.6995" y2="3.20049" gradientUnits="userSpaceOnUse">
<stop stop-color="#E8B022" stop-opacity="0.9"/>
<stop offset="1" stop-color="white" stop-opacity="0"/>
</linearGradient>
<linearGradient id="paint3_linear" x1="3.30056" y1="12.7996" x2="3.30056" y2="14.9327" gradientUnits="userSpaceOnUse">
<stop stop-color="#E8B022" stop-opacity="0.9"/>
<stop offset="1" stop-color="white" stop-opacity="0"/>
</linearGradient>
<linearGradient id="paint4_linear" x1="7.0276" y1="4.95911e-05" x2="7.0276" y2="12.492" gradientUnits="userSpaceOnUse">
<stop stop-color="#E8B022" stop-opacity="0.9"/>
<stop offset="1" stop-color="white" stop-opacity="0"/>
</linearGradient>
<linearGradient id="paint5_linear" x1="10.973" y1="3.58652" x2="10.973" y2="16" gradientUnits="userSpaceOnUse">
<stop stop-color="#E8B022" stop-opacity="0.9"/>
<stop offset="1" stop-color="white" stop-opacity="0"/>
</linearGradient>
<clipPath id="clip0">
<rect width="18" height="16" fill="white"/>
</clipPath>
</defs>
</svg>