<svg width="11" height="17" viewBox="0 0 11 17" fill="none" xmlns="http://www.w3.org/2000/svg">
<path d="M5.5 0C2.46736 0 0 2.54213 0 5.66668C0 6.60467 0.227616 7.53469 0.660321 8.35958L5.19923 16.8174C5.25966 16.9301 5.3748 17 5.5 17C5.6252 17 5.74035 16.9301 5.80077 16.8174L10.3414 8.35679C10.7724 7.53469 11 6.60463 11 5.66664C11 2.54213 8.53264 0 5.5 0ZM5.5 8.5C3.98368 8.5 2.75002 7.22895 2.75002 5.66668C2.75002 4.1044 3.98368 2.83336 5.5 2.83336C7.01632 2.83336 8.24998 4.1044 8.24998 5.66668C8.24998 7.22895 7.01632 8.5 5.5 8.5Z" fill="white"/>
</svg>